<?xml version="1.0" standalone="no"?>
<!DOCTYPE svg PUBLIC "-//W3C//DTD SVG 20010904//EN"
 "http://www.w3.org/TR/2001/REC-SVG-20010904/DTD/svg10.dtd">
<svg version="1.0" xmlns="http://www.w3.org/2000/svg"
 width="512.000000pt" height="512.000000pt" viewBox="0 0 512.000000 512.000000"
 preserveAspectRatio="xMidYMid meet">
<metadata>
Created by potrace 1.14, written by Peter Selinger 2001-2017
</metadata>
<g transform="translate(0.000000,512.000000) scale(0.100000,-0.100000)"
fill="#000000" stroke="none">
<path d="M1652 4025 c-18 -22 -19 -41 -18 -270 1 -247 1 -247 25 -266 13 -10
33 -19 45 -19 29 0 66 35 67 63 7 160 2 456 -8 478 -21 46 -80 54 -111 14z"/>
<path d="M691 3636 c-7 -8 -14 -29 -17 -48 -5 -32 1 -40 166 -205 189 -189
217 -207 259 -162 45 48 35 65 -154 254 -158 157 -179 175 -209 175 -18 0 -39
-6 -45 -14z"/>
<path d="M2463 3478 c-161 -161 -173 -175 -173 -209 0 -42 13 -56 59 -65 31
-6 39 0 207 167 115 115 176 183 179 200 7 38 -28 79 -68 79 -27 0 -54 -23
-204 -172z"/>
<path d="M1586 3263 c-148 -25 -298 -114 -392 -231 -94 -117 -144 -258 -145
-407 -1 -136 31 -247 103 -362 41 -65 154 -178 204 -203 16 -8 36 -20 44 -26
8 -7 54 -24 102 -39 l88 -27 -38 -43 c-230 -262 -124 -665 213 -808 87 -37
157 -47 319 -48 167 0 186 5 201 51 5 15 23 17 155 18 l149 1 20 -35 20 -34
98 0 c352 -2 587 0 603 5 10 3 24 19 31 34 l13 29 152 0 c152 0 152 0 158 -24
4 -13 16 -28 27 -35 15 -7 175 -10 532 -10 590 1 539 -9 576 110 76 242 -6
484 -211 621 -57 38 -158 76 -224 85 -16 2 -30 4 -32 4 -1 1 11 27 27 59 33
66 68 156 75 192 3 14 8 36 12 50 3 14 8 72 9 130 5 151 -29 272 -111 396 -37
56 -66 74 -104 64 -20 -5 -38 5 -93 51 -37 31 -92 69 -121 85 -48 25 -55 33
-60 66 -7 44 -27 57 -131 84 -95 24 -299 28 -392 7 -212 -48 -402 -169 -525
-335 l-51 -68 -36 29 c-125 99 -286 152 -442 147 l-86 -3 -29 61 c-50 104
-131 197 -232 262 -51 34 -131 73 -162 79 -8 2 -34 8 -58 14 -64 18 -168 19
-256 4z"/>
<path d="M291 2664 c-26 -34 -27 -64 -1 -92 20 -21 26 -22 270 -22 244 0 250
1 270 22 26 28 26 70 -1 94 -19 17 -42 19 -269 22 l-248 3 -21 -27z"/>
<path d="M1025 2029 c-11 -4 -95 -83 -187 -176 -179 -180 -188 -196 -150 -244
13 -15 30 -22 51 -22 29 0 53 20 202 169 93 93 172 180 176 193 13 51 -43 99
-92 80z"/>
</g>
</svg>
